<?xml version="1.0" standalone="no"?>
<!DOCTYPE svg PUBLIC "-//W3C//DTD SVG 20010904//EN"
 "http://www.w3.org/TR/2001/REC-SVG-20010904/DTD/svg10.dtd">
<svg version="1.0" xmlns="http://www.w3.org/2000/svg"
 width="162.000000pt" height="50.000000pt" viewBox="0 0 162.000000 50.000000"
 preserveAspectRatio="xMidYMid meet">

<g transform="translate(0.000000,50.000000) scale(0.100000,-0.100000)"
fill="#000000" stroke="none">
<path d="M123 450 c-72 -39 -79 -46 -80 -89 -1 -22 2 -43 8 -46 5 -4 9 -17 9
-31 0 -15 6 -24 16 -24 13 0 14 3 4 15 -13 16 -6 65 10 65 6 0 10 8 10 18 0
33 45 64 98 70 27 2 52 0 55 -4 3 -5 -15 -9 -40 -9 -38 -1 -50 -6 -75 -34 -21
-24 -27 -36 -19 -44 6 -6 11 -21 11 -33 0 -20 5 -17 44 21 36 35 47 41 56 30
6 -8 24 -16 39 -20 23 -5 27 -10 23 -34 -2 -16 1 -32 7 -35 7 -5 8 -1 5 9 -4
9 -3 15 2 14 31 -5 36 2 31 53 -4 43 -11 58 -36 80 -17 15 -31 32 -31 38 0 17
-112 9 -147 -10z"/>
<path d="M632 395 c0 -16 2 -22 5 -12 2 9 2 23 0 30 -3 6 -5 -1 -5 -18z"/>
<path d="M692 397 c-12 -13 -22 -29 -22 -37 0 -8 11 1 25 20 14 19 25 35 25
37 0 7 -8 2 -28 -20z"/>
<path d="M1178 349 c-2 -39 0 -73 5 -76 4 -2 7 30 7 71 0 42 -2 76 -4 76 -2 0
-6 -32 -8 -71z"/>
<path d="M810 391 c-5 -11 -10 -30 -9 -43 1 -21 2 -20 9 5 5 16 14 35 21 43 8
9 8 14 1 14 -6 0 -16 -9 -22 -19z"/>
<path d="M1487 403 c-4 -3 -6 -22 -6 -42 2 -34 2 -34 6 -6 2 17 12 36 21 43
14 10 14 12 1 12 -9 0 -19 -3 -22 -7z"/>
<path d="M1002 350 c0 -19 2 -27 5 -17 2 9 2 25 0 35 -3 9 -5 1 -5 -18z"/>
<path d="M1372 350 c0 -19 2 -27 5 -17 2 9 2 25 0 35 -3 9 -5 1 -5 -18z"/>
<path d="M1078 343 c-5 -20 -17 -37 -35 -47 -26 -14 -26 -15 -6 -16 27 0 56
40 51 72 -3 20 -4 18 -10 -9z"/>
<path d="M1292 345 c0 -16 2 -22 5 -12 2 9 2 23 0 30 -3 6 -5 -1 -5 -18z"/>
<path d="M888 323 c-9 -18 -23 -30 -43 -33 -22 -4 -25 -7 -14 -12 25 -10 62
14 70 45 9 35 4 35 -13 0z"/>
<path d="M635 326 c-3 -9 -7 -23 -10 -31 -2 -8 -1 -15 4 -15 5 0 11 12 14 28
6 30 0 44 -8 18z"/>
<path d="M1560 320 c0 -25 -38 -42 -60 -27 -12 8 -11 7 1 -7 11 -12 24 -15 42
-10 22 5 27 12 27 35 0 16 -2 29 -5 29 -3 0 -5 -9 -5 -20z"/>
<path d="M1286 295 c-3 -8 -1 -15 4 -15 6 0 10 7 10 15 0 8 -2 15 -4 15 -2 0
-6 -7 -10 -15z"/>
<path d="M1366 295 c-3 -8 -1 -15 4 -15 6 0 10 7 10 15 0 8 -2 15 -4 15 -2 0
-6 -7 -10 -15z"/>
<path d="M188 293 c7 -3 16 -2 19 1 4 3 -2 6 -13 5 -11 0 -14 -3 -6 -6z"/>
<path d="M265 290 c3 -5 8 -10 11 -10 2 0 4 5 4 10 0 6 -5 10 -11 10 -5 0 -7
-4 -4 -10z"/>
<path d="M134 232 c4 -7 3 -12 -3 -12 -14 0 -70 -49 -82 -72 -7 -13 -7 -18 -1
-14 6 3 13 2 17 -4 3 -6 25 -19 48 -31 37 -18 39 -18 19 -2 -20 17 -22 23 -12
47 6 16 9 31 6 33 -2 2 -8 -10 -14 -26 -12 -35 -23 -38 -43 -15 -11 14 -9 20
17 43 17 14 39 31 49 37 15 8 16 12 5 19 -9 5 -11 4 -6 -3z"/>
<path d="M249 219 c-10 -6 -7 -9 14 -9 29 0 35 5 14 13 -8 3 -20 1 -28 -4z"/>
<path d="M168 213 c7 -3 16 -2 19 1 4 3 -2 6 -13 5 -11 0 -14 -3 -6 -6z"/>
<path d="M208 203 c7 -3 16 -2 19 1 4 3 -2 6 -13 5 -11 0 -14 -3 -6 -6z"/>
<path d="M310 194 c8 -10 15 -20 16 -22 1 -2 4 1 7 5 3 5 -4 15 -16 23 -21 12
-21 12 -7 -6z"/>
<path d="M383 183 c9 -2 25 -2 35 0 9 3 1 5 -18 5 -19 0 -27 -2 -17 -5z"/>
<path d="M291 135 c0 -31 2 -36 9 -23 6 10 7 25 1 40 -9 20 -10 18 -10 -17z"/>
<path d="M168 81 c8 -4 12 -10 11 -12 -2 -2 2 -13 9 -24 6 -11 12 -15 12 -8 0
6 -4 14 -10 18 -5 3 -7 12 -3 20 3 10 -1 15 -13 15 -14 0 -16 -2 -6 -9z"/>
</g>
</svg>
